<svg width="89" height="71" viewBox="0 0 89 71" fill="none" xmlns="http://www.w3.org/2000/svg">
<path d="M74.6434 16.49L57.9934 27.0504C55.8307 23.6405 52.3675 21.0554 48.1169 20.1042L52.4227 0.864498C61.9865 3.00486 69.7791 8.81868 74.6434 16.49Z" fill="url(#paint0_linear_0_50)"/>
<path d="M36.2219 22.1779C32.812 24.3406 30.227 27.8038 29.2757 32.0543L10.036 27.7485C12.1764 18.1848 17.9902 10.3921 25.6615 5.52786L36.2219 22.1779Z" fill="url(#paint1_linear_0_50)"/>
<path d="M52.4228 0.864565L48.117 20.1042C43.8664 19.153 39.6317 20.0152 36.2219 22.178L25.6615 5.52798C33.3316 0.661816 42.8591 -1.27579 52.4228 0.864565Z" fill="url(#paint2_linear_0_50)"/>
<path d="M79.3071 43.2512L60.0674 38.9454C61.0187 34.6949 60.1564 30.4602 57.9937 27.0503L74.6437 16.4899C79.5098 24.16 81.4474 33.6875 79.3071 43.2512Z" fill="url(#paint3_linear_0_50)"/>
<path d="M79.3069 43.2513C77.1666 52.815 71.3528 60.6077 63.6814 65.4719L53.1211 48.8219C56.531 46.6592 59.116 43.196 60.0673 38.9454L79.3069 43.2513Z" fill="url(#paint4_linear_0_50)"/>
<path d="M31.3495 43.9495L14.6996 54.5098C9.8334 46.8397 7.89579 37.3123 10.0361 27.7485L29.2758 32.0543C28.3245 36.3049 29.1868 40.5396 31.3495 43.9495Z" fill="url(#paint5_linear_0_50)"/>
<path d="M63.6814 65.472C56.0113 70.3382 46.4839 72.2758 36.9201 70.1355L41.2259 50.8958C45.4765 51.8471 49.7112 50.9848 53.121 48.8221L63.6814 65.472Z" fill="url(#paint6_linear_0_50)"/>
<path d="M41.226 50.8958L36.9202 70.1355C27.3564 67.9951 19.5638 62.1813 14.6995 54.51L31.3495 43.9496C33.5123 47.3595 36.9754 49.9446 41.226 50.8958Z" fill="url(#paint7_linear_0_50)"/>
<path d="M67.4081 21.0791L57.9936 27.0503C55.8309 23.6404 52.3677 21.0554 48.1171 20.1041L50.5515 9.22663C57.8076 10.8505 63.7161 15.2604 67.4081 21.0791Z" fill="url(#paint8_linear_0_50)"/>
<path d="M36.222 22.178C32.8121 24.3408 30.2271 27.804 29.2758 32.0545L18.3984 29.6202C20.0223 22.3641 24.432 16.4555 30.2508 12.7636L36.222 22.178Z" fill="url(#paint9_linear_0_50)"/>
<path d="M50.5514 9.22676L48.1171 20.1042C43.8665 19.153 39.6318 20.0152 36.222 22.178L30.2508 12.7635C36.0707 9.07359 43.2953 7.60286 50.5514 9.22676Z" fill="url(#paint10_linear_0_50)"/>
<path d="M70.9446 41.3799L60.0672 38.9456C61.0184 34.695 60.1562 30.4603 57.9934 27.0505L67.4079 21.0793C71.0978 26.8992 72.5685 34.1238 70.9446 41.3799Z" fill="url(#paint11_linear_0_50)"/>
<path d="M70.9447 41.3798C69.3208 48.6359 64.9109 54.5444 59.0923 58.2364L53.1211 48.8219C56.531 46.6592 59.116 43.196 60.0673 38.9454L70.9447 41.3798Z" fill="url(#paint12_linear_0_50)"/>
<path d="M31.3496 43.9495L21.9352 49.9207C18.2453 44.1007 16.7746 36.8761 18.3985 29.62L29.2759 32.0544C28.3246 36.305 29.1869 40.5396 31.3496 43.9495Z" fill="url(#paint13_linear_0_50)"/>
<path d="M59.0922 58.2365C53.2723 61.9264 46.0476 63.3971 38.7915 61.7732L41.2259 50.8958C45.4765 51.8471 49.7112 50.9848 53.121 48.8221L59.0922 58.2365Z" fill="url(#paint14_linear_0_50)"/>
<path d="M41.2261 50.8958L38.7917 61.7732C31.5356 60.1493 25.6271 55.7394 21.9351 49.9208L31.3496 43.9496C33.5123 47.3595 36.9755 49.9445 41.2261 50.8958Z" fill="url(#paint15_linear_0_50)"/>
<path d="M77.5702 22.1788L60.2749 33.1484C60.5583 35.0244 60.5065 36.983 60.0673 38.9454C59.116 43.1959 56.531 46.6591 53.1211 48.8218C49.7112 50.9846 45.4765 51.8468 41.226 50.8956C39.2636 50.4564 37.4696 49.6684 35.8935 48.6125L18.5983 59.5821C23.3238 64.7075 29.6026 68.4976 36.9203 70.1353C46.4841 72.2756 56.0115 70.338 63.6816 65.4719C71.3529 60.6078 77.1668 52.815 79.3071 43.2512C80.9446 35.9336 80.1925 28.6382 77.5702 22.1788Z" fill="url(#paint16_linear_0_50)"/>
<path d="M12.2304 43.2864L0.202493 62.3231C-0.379429 63.2442 0.370948 64.4275 1.45221 64.2937L23.7998 61.5275C28.8521 58.3231 17.2825 40.0821 12.2304 43.2864Z" fill="url(#paint17_linear_0_50)"/>
<path d="M54.369 42.1407L23.7995 61.5273C23.5497 60.7288 23.0696 59.9642 22.3743 59.3431C21.4235 58.499 19.6524 58.4482 18.3974 58.5416C18.1245 58.5605 17.9205 58.3749 17.871 58.1496C17.8537 58.0774 17.8526 58.0023 17.8679 57.9296C17.8831 57.857 17.9143 57.7886 17.9592 57.7295C17.962 57.7301 17.9626 57.7274 17.9626 57.7274C18.0606 57.5934 18.1517 57.4546 18.2357 57.3114L18.3504 57.1057C18.3543 57.1008 18.3549 57.0981 18.3561 57.0927C18.4717 56.8701 18.5682 56.6432 18.6468 56.4065C18.6727 56.3295 18.6964 56.2491 18.7194 56.1714C18.7556 56.0415 18.7863 55.9103 18.8114 55.7779C18.9925 54.8305 18.8817 53.8504 18.4937 52.9672C18.396 52.7435 18.281 52.5276 18.1498 52.3217C18.0195 52.1152 17.8733 51.9191 17.7125 51.7353C16.9717 50.884 15.9723 50.3461 14.9101 50.1655C14.83 50.1534 14.7472 50.1406 14.6665 50.131C14.4189 50.1012 14.1698 50.0911 13.9218 50.1014C13.9164 50.1002 13.9136 50.0996 13.9076 50.1011L13.6725 50.1171C13.5882 50.1239 13.5059 50.1341 13.4231 50.147C13.3436 50.1578 13.2633 50.1713 13.1826 50.1875C13.1799 50.1869 13.1799 50.1869 13.1765 50.189C13.1039 50.2045 13.0288 50.2036 12.9565 50.1864C12.8843 50.1693 12.8168 50.1362 12.7589 50.0898C12.5762 49.949 12.4953 49.6851 12.6286 49.4465C13.2481 48.351 13.9564 46.73 13.5982 45.51C13.333 44.6137 12.849 43.8541 12.2303 43.2872L42.7978 23.8974C44.1754 23.0258 45.9981 23.4338 46.8702 24.8087L48.5193 27.4088L53.6312 35.4686L55.2803 38.0686C56.1523 39.4433 55.7444 41.2658 54.369 42.1407Z" fill="url(#paint18_linear_0_50)"/>
<path d="M53.6313 35.4683L17.8709 58.1495C17.8536 58.0773 17.8526 58.0021 17.8679 57.9295C17.8831 57.8568 17.9143 57.7885 17.9592 57.7294C17.962 57.73 17.9626 57.7272 17.9626 57.7272C18.0614 57.5923 18.5713 56.6409 18.6467 56.4064C18.6759 56.3272 18.6988 56.2495 18.7192 56.1712C19.0086 55.1334 18.948 54.0001 18.4937 52.9671C18.396 52.7433 18.281 52.5275 18.1497 52.3216C18.0195 52.1151 17.8733 51.919 17.7125 51.7352C16.9717 50.8839 15.9723 50.346 14.9101 50.1654C14.8306 50.1505 14.7505 50.1383 14.6665 50.1308C14.4196 50.0989 14.1704 50.089 13.9218 50.1013C13.9164 50.1001 13.9136 50.0995 13.9075 50.101C13.8299 50.1035 13.2635 50.171 13.1826 50.1872C13.1799 50.1866 13.1799 50.1866 13.1765 50.1887C13.1039 50.2042 13.0288 50.2033 12.9565 50.1861C12.8843 50.169 12.8168 50.136 12.7589 50.0895L48.5192 27.4083L53.6313 35.4683Z" fill="url(#paint19_linear_0_50)"/>
<path d="M4.95387 60.691C4.36536 59.7618 3.63624 58.9295 2.79252 58.2239L0.202746 62.3229C-0.379176 63.244 0.3712 64.4272 1.45249 64.2933L6.26434 63.6977C5.98574 62.6337 5.54366 61.6194 4.95387 60.691Z" fill="url(#paint20_linear_0_50)"/>
<path d="M86.7424 8.81631L49.8294 32.2286L46.4046 26.8289C45.6581 25.6519 46.0071 24.0925 47.1841 23.346L50.4136 21.2977C51.1038 20.8599 51.701 20.2905 52.1712 19.6219C52.6413 18.9533 52.9752 18.1987 53.1537 17.4011L53.8896 14.1125C54.4687 11.5253 56.623 9.5889 59.2571 9.28809L85.837 6.25258C87.3086 6.08444 87.993 8.02297 86.7424 8.81631Z" fill="url(#paint21_linear_0_50)"/>
<path d="M86.7424 8.8163L49.8294 32.2286L53.2542 37.6282C54.0007 38.8052 55.5601 39.1542 56.7371 38.4077L59.9666 36.3594C60.6568 35.9216 61.4265 35.6241 62.2317 35.4838C63.0369 35.3434 63.8618 35.3631 64.6594 35.5416L67.9478 36.2775C70.5351 36.8566 73.205 35.7331 74.6 33.4785L88.6756 10.7279C89.4549 9.46854 87.993 8.02296 86.7424 8.8163Z" fill="url(#paint22_linear_0_50)"/>
<path d="M69.0341 21.2629L87.5753 9.50312C88.0368 9.21038 88.219 8.60645 87.9566 8.12689C87.8893 8.00348 87.7975 7.89519 87.6867 7.80872C87.5759 7.72226 87.4486 7.65946 87.3126 7.62422C87.1765 7.58899 87.0347 7.58206 86.8959 7.60388C86.757 7.6257 86.6242 7.67579 86.5055 7.75105L67.9781 19.5023C66.765 20.2717 65.27 20.507 63.9011 20.0711C62.635 19.668 61.1908 19.8583 60.0255 20.7448C58.3741 22.001 57.878 24.3149 58.8659 26.1395C60.052 28.3301 62.8199 29.025 64.8876 27.7135C65.9705 27.0267 66.637 25.9317 66.8145 24.7562C67.0304 23.3239 67.811 22.0387 69.0341 21.2629Z" fill="url(#paint23_linear_0_50)"/>
<path d="M52.5077 19.0861C52.0035 19.9853 51.2839 20.7451 50.4136 21.2975L47.1841 23.3458C46.0071 24.0923 45.6581 25.6517 46.4046 26.8287L49.8294 32.2284L53.2542 37.628C54.0007 38.805 55.5601 39.154 56.737 38.4075L59.9665 36.3592C60.8371 35.8071 61.8313 35.4801 62.8596 35.4074L52.5077 19.0861Z" fill="url(#paint24_linear_0_50)"/>
<path d="M49.8484 45.0078L38.2773 26.7641L45.5479 22.1527C46.3899 21.6186 47.5054 21.8683 48.0394 22.7103L57.6766 37.9048C58.2106 38.7469 57.961 39.8624 57.119 40.3963L49.8484 45.0078Z" fill="url(#paint25_linear_0_50)"/>
<defs>
<linearGradient id="paint0_linear_0_50" x1="48.9652" y1="-1.27699" x2="66.7387" y2="26.7458" gradientUnits="userSpaceOnUse">
<stop stop-color="#FFF5D9"/>
<stop offset="1" stop-color="#FFCE47"/>
</linearGradient>
<linearGradient id="paint1_linear_0_50" x1="17.338" y1="15.8329" x2="25.2936" y2="28.3761" gradientUnits="userSpaceOnUse">
<stop stop-color="#6FA953"/>
<stop offset="1" stop-color="#43765A"/>
</linearGradient>
<linearGradient id="paint2_linear_0_50" x1="38.0639" y1="1.65378" x2="48.5188" y2="18.1378" gradientUnits="userSpaceOnUse">
<stop stop-color="#E4E08E"/>
<stop offset="1" stop-color="#6FA953"/>
</linearGradient>
<linearGradient id="paint3_linear_0_50" x1="60.4602" y1="16.8462" x2="77.4291" y2="43.6003" gradientUnits="userSpaceOnUse">
<stop stop-color="#FFCE47"/>
<stop offset="1" stop-color="#FF9356"/>
</linearGradient>
<linearGradient id="paint4_linear_0_50" x1="60.9017" y1="37.6608" x2="70.7389" y2="53.1708" gradientUnits="userSpaceOnUse">
<stop stop-color="#FF9356"/>
<stop offset="1" stop-color="#FF755C"/>
</linearGradient>
<linearGradient id="paint5_linear_0_50" x1="12.5926" y1="28.4693" x2="24.1679" y2="46.7195" gradientUnits="userSpaceOnUse">
<stop stop-color="#7ACBFF"/>
<stop offset="1" stop-color="#45A2E0"/>
</linearGradient>
<linearGradient id="paint6_linear_0_50" x1="40.7769" y1="52.788" x2="50.4877" y2="68.0985" gradientUnits="userSpaceOnUse">
<stop stop-color="#FF755C"/>
<stop offset="1" stop-color="#FF4181"/>
</linearGradient>
<linearGradient id="paint7_linear_0_50" x1="20.8728" y1="41.5242" x2="44.3543" y2="78.5466" gradientUnits="userSpaceOnUse">
<stop stop-color="#FF4181"/>
<stop offset="1" stop-color="#843561"/>
</linearGradient>
<linearGradient id="paint8_linear_0_50" x1="61.2869" y1="26.1481" x2="50.348" y2="8.90128" gradientUnits="userSpaceOnUse">
<stop stop-color="#FFF5D9"/>
<stop offset="1" stop-color="#FFCE47"/>
</linearGradient>
<linearGradient id="paint9_linear_0_50" x1="30.853" y1="31.485" x2="17.2952" y2="10.109" gradientUnits="userSpaceOnUse">
<stop stop-color="#6FA953"/>
<stop offset="1" stop-color="#43765A"/>
</linearGradient>
<linearGradient id="paint10_linear_0_50" x1="46.2151" y1="20.1618" x2="34.1494" y2="1.13835" gradientUnits="userSpaceOnUse">
<stop stop-color="#E4E08E"/>
<stop offset="1" stop-color="#6FA953"/>
</linearGradient>
<linearGradient id="paint11_linear_0_50" x1="70.8168" y1="41.1739" x2="58.0793" y2="21.0913" gradientUnits="userSpaceOnUse">
<stop stop-color="#FFCE47"/>
<stop offset="1" stop-color="#FF9356"/>
</linearGradient>
<linearGradient id="paint12_linear_0_50" x1="66.9981" y1="52.9292" x2="58.4884" y2="39.5123" gradientUnits="userSpaceOnUse">
<stop stop-color="#FF9356"/>
<stop offset="1" stop-color="#FF755C"/>
</linearGradient>
<linearGradient id="paint13_linear_0_50" x1="31.2559" y1="49.8962" x2="15.5445" y2="25.1248" gradientUnits="userSpaceOnUse">
<stop stop-color="#7ACBFF"/>
<stop offset="1" stop-color="#45A2E0"/>
</linearGradient>
<linearGradient id="paint14_linear_0_50" x1="51.3761" y1="63.8428" x2="39.9244" y2="45.7875" gradientUnits="userSpaceOnUse">
<stop stop-color="#FF755C"/>
<stop offset="1" stop-color="#FF4181"/>
</linearGradient>
<linearGradient id="paint15_linear_0_50" x1="39.0494" y1="62.184" x2="25.0737" y2="40.1492" gradientUnits="userSpaceOnUse">
<stop stop-color="#FF4181"/>
<stop offset="1" stop-color="#843561"/>
</linearGradient>
<linearGradient id="paint16_linear_0_50" x1="56.214" y1="53.6984" x2="48.0919" y2="40.8928" gradientUnits="userSpaceOnUse">
<stop stop-color="#843561" stop-opacity="0"/>
<stop offset="1" stop-color="#3A2F4D"/>
</linearGradient>
<linearGradient id="paint17_linear_0_50" x1="5.21581" y1="47.7006" x2="16.7854" y2="65.9417" gradientUnits="userSpaceOnUse">
<stop stop-color="#FFE0EA"/>
<stop offset="1" stop-color="#FFC0D5"/>
</linearGradient>
<linearGradient id="paint18_linear_0_50" x1="13.452" y1="37.8282" x2="54.179" y2="46.9428" gradientUnits="userSpaceOnUse">
<stop stop-color="#FFCE47"/>
<stop offset="1" stop-color="#FF9356"/>
</linearGradient>
<linearGradient id="paint19_linear_0_50" x1="37.9955" y1="50.3477" x2="26.316" y2="31.9332" gradientUnits="userSpaceOnUse">
<stop stop-color="#FFCE47"/>
<stop offset="1" stop-color="#FF9356"/>
</linearGradient>
<linearGradient id="paint20_linear_0_50" x1="2.22615" y1="61.6141" x2="5.17821" y2="66.2684" gradientUnits="userSpaceOnUse">
<stop stop-color="#2F73A0"/>
<stop offset="1" stop-color="#174461"/>
</linearGradient>
<linearGradient id="paint21_linear_0_50" x1="66.2553" y1="15.3005" x2="67.4964" y2="18.9643" gradientUnits="userSpaceOnUse">
<stop stop-color="#EDF5FF"/>
<stop offset="1" stop-color="#C7E9FF"/>
</linearGradient>
<linearGradient id="paint22_linear_0_50" x1="69.8515" y1="22.6207" x2="71.4485" y2="27.9835" gradientUnits="userSpaceOnUse">
<stop stop-color="#EDF5FF"/>
<stop offset="1" stop-color="#C7E9FF"/>
</linearGradient>
<linearGradient id="paint23_linear_0_50" x1="75.598" y1="20.5587" x2="72.0475" y2="14.9608" gradientUnits="userSpaceOnUse">
<stop stop-color="#2F73A0"/>
<stop offset="1" stop-color="#174461"/>
</linearGradient>
<linearGradient id="paint24_linear_0_50" x1="55.613" y1="28.5394" x2="52.5548" y2="30.4791" gradientUnits="userSpaceOnUse">
<stop stop-color="#7ACBFF" stop-opacity="0"/>
<stop offset="1" stop-color="#2F73A0"/>
</linearGradient>
<linearGradient id="paint25_linear_0_50" x1="50.1132" y1="31.1392" x2="44.8248" y2="36.5165" gradientUnits="userSpaceOnUse">
<stop stop-color="#2F73A0"/>
<stop offset="1" stop-color="#174461"/>
</linearGradient>
</defs>
</svg>
